# xmcd
#
# Track frame offsets:
#	150
#	13599
#	29775
#	44391
#	61438
#	78422
#	93153
#	109865
#
# Disc length: 1642 seconds
#
# Revision: 1
# Processed by: cddbd v1.5.2PL0 Copyright (c) Steve Scherf et al.
# Submitted via: audiograbber 1.83.01
#
DISCID=62066808
DTITLE=J.C. Brae - J.C. Brae
DYEAR=2008
DGENRE=Country
TTITLE0=Talking Dirty
TTITLE1=I Remember That Lonely
TTITLE2=How High Did You Go
TTITLE3=Mississippi Rendezvous
TTITLE4=I'm Only 10 Years Old
TTITLE5=Savin' It Up For Saturday Night
TTITLE6=If Only
TTITLE7=Somebody's Baby
EXTD=
EXTT0=
EXTT1=
EXTT2=
EXTT3=
EXTT4=
EXTT5=
EXTT6=
EXTT7=
PLAYORDER=
